<mxfile host="Electron" agent="Mozilla/5.0 (Windows NT 10.0; Win64; x64) AppleWebKit/537.36 (KHTML, like Gecko) draw.io/26.0.16 Chrome/132.0.6834.196 Electron/34.2.0 Safari/537.36" version="26.0.16">
  <diagram name="Page-1" id="mXHxdq0K06wNgFEHyDob">
    <mxGraphModel dx="1480" dy="936" grid="1" gridSize="10" guides="1" tooltips="1" connect="1" arrows="1" fold="1" page="1" pageScale="1" pageWidth="1169" pageHeight="827" math="0" shadow="0">
      <root>
        <mxCell id="0" />
        <mxCell id="1" parent="0" />
        <mxCell id="FJEk-ni-e8xOivcbfDF8-1" value="" style="swimlane;startSize=0;labelBackgroundColor=#FFFFFF;fillColor=#FFFFFF;fillStyle=auto;gradientColor=none;strokeColor=none;" parent="1" vertex="1">
          <mxGeometry width="1160" height="820" as="geometry">
            <mxRectangle width="50" height="40" as="alternateBounds" />
          </mxGeometry>
        </mxCell>
        <mxCell id="FJEk-ni-e8xOivcbfDF8-2" value="" style="group" parent="FJEk-ni-e8xOivcbfDF8-1" vertex="1" connectable="0">
          <mxGeometry x="45" y="41" width="1080" height="646" as="geometry" />
        </mxCell>
        <mxCell id="VW3lL3cYOoMvem1zIZGO-18" value="" style="group" parent="FJEk-ni-e8xOivcbfDF8-2" vertex="1" connectable="0">
          <mxGeometry x="200" y="190" width="615" height="58" as="geometry" />
        </mxCell>
        <mxCell id="VW3lL3cYOoMvem1zIZGO-7" value="Github" style="sketch=0;pointerEvents=1;shadow=0;dashed=0;html=1;strokeColor=none;fillColor=#505050;labelPosition=center;verticalLabelPosition=bottom;verticalAlign=top;outlineConnect=0;align=center;shape=mxgraph.office.concepts.install;" parent="VW3lL3cYOoMvem1zIZGO-18" vertex="1">
          <mxGeometry x="570" y="6" width="45" height="52" as="geometry" />
        </mxCell>
        <mxCell id="VW3lL3cYOoMvem1zIZGO-14" style="edgeStyle=none;shape=connector;rounded=0;orthogonalLoop=1;jettySize=auto;html=1;strokeColor=default;align=center;verticalAlign=middle;fontFamily=Helvetica;fontSize=11;fontColor=default;labelBackgroundColor=default;startArrow=classic;startFill=1;endArrow=classic;" parent="VW3lL3cYOoMvem1zIZGO-18" source="VW3lL3cYOoMvem1zIZGO-8" target="VW3lL3cYOoMvem1zIZGO-9" edge="1">
          <mxGeometry relative="1" as="geometry" />
        </mxCell>
        <mxCell id="VW3lL3cYOoMvem1zIZGO-8" value="&lt;span class=&quot;flex-auto min-width-0 css-truncate css-truncate-target width-fit&quot;&gt;&lt;br/&gt;          &lt;a href=&quot;https://shoply-en.netlify.app/&quot; class=&quot;text-bold&quot; rel=&quot;noopener noreferrer nofollow&quot; target=&quot;_blank&quot; role=&quot;link&quot; title=&quot;https://shoply-en.netlify.app/&quot;&gt;shoply-en.netlify.app&lt;/a&gt;&lt;/span&gt;" style="sketch=0;pointerEvents=1;shadow=0;dashed=0;html=1;strokeColor=none;fillColor=#505050;labelPosition=center;verticalLabelPosition=bottom;verticalAlign=top;outlineConnect=0;align=center;shape=mxgraph.office.concepts.application_web;" parent="VW3lL3cYOoMvem1zIZGO-18" vertex="1">
          <mxGeometry x="190" y="6" width="56" height="49" as="geometry" />
        </mxCell>
        <mxCell id="VW3lL3cYOoMvem1zIZGO-15" style="edgeStyle=none;shape=connector;rounded=0;orthogonalLoop=1;jettySize=auto;html=1;strokeColor=default;align=center;verticalAlign=middle;fontFamily=Helvetica;fontSize=11;fontColor=default;labelBackgroundColor=default;startArrow=classic;startFill=1;endArrow=classic;" parent="VW3lL3cYOoMvem1zIZGO-18" source="VW3lL3cYOoMvem1zIZGO-9" target="VW3lL3cYOoMvem1zIZGO-7" edge="1">
          <mxGeometry relative="1" as="geometry" />
        </mxCell>
        <mxCell id="VW3lL3cYOoMvem1zIZGO-9" value="Netlify" style="sketch=0;pointerEvents=1;shadow=0;dashed=0;html=1;strokeColor=none;fillColor=#505050;labelPosition=center;verticalLabelPosition=bottom;verticalAlign=top;outlineConnect=0;align=center;shape=mxgraph.office.servers.server_generic;" parent="VW3lL3cYOoMvem1zIZGO-18" vertex="1">
          <mxGeometry x="390" y="3" width="27" height="52" as="geometry" />
        </mxCell>
        <mxCell id="VW3lL3cYOoMvem1zIZGO-13" style="edgeStyle=none;shape=connector;rounded=0;orthogonalLoop=1;jettySize=auto;html=1;strokeColor=default;align=center;verticalAlign=middle;fontFamily=Helvetica;fontSize=11;fontColor=default;labelBackgroundColor=default;startArrow=classic;startFill=1;endArrow=classic;" parent="VW3lL3cYOoMvem1zIZGO-18" source="VW3lL3cYOoMvem1zIZGO-10" target="VW3lL3cYOoMvem1zIZGO-8" edge="1">
          <mxGeometry relative="1" as="geometry" />
        </mxCell>
        <mxCell id="VW3lL3cYOoMvem1zIZGO-10" value="User" style="sketch=0;pointerEvents=1;shadow=0;dashed=0;html=1;strokeColor=none;fillColor=#505050;labelPosition=center;verticalLabelPosition=bottom;verticalAlign=top;outlineConnect=0;align=center;shape=mxgraph.office.users.mobile_user;" parent="VW3lL3cYOoMvem1zIZGO-18" vertex="1">
          <mxGeometry width="59" height="56" as="geometry" />
        </mxCell>
        <mxCell id="VW3lL3cYOoMvem1zIZGO-19" value="" style="endArrow=none;html=1;rounded=0;strokeColor=default;align=center;verticalAlign=middle;fontFamily=Helvetica;fontSize=11;fontColor=default;labelBackgroundColor=default;strokeWidth=2;dashed=1;" parent="FJEk-ni-e8xOivcbfDF8-2" edge="1">
          <mxGeometry width="50" height="50" relative="1" as="geometry">
            <mxPoint y="400" as="sourcePoint" />
            <mxPoint x="1080" y="400" as="targetPoint" />
          </mxGeometry>
        </mxCell>
        <mxCell id="VW3lL3cYOoMvem1zIZGO-20" value="" style="group" parent="FJEk-ni-e8xOivcbfDF8-2" vertex="1" connectable="0">
          <mxGeometry x="280" y="590" width="432" height="56" as="geometry" />
        </mxCell>
        <mxCell id="VW3lL3cYOoMvem1zIZGO-11" style="rounded=0;orthogonalLoop=1;jettySize=auto;html=1;strokeColor=default;startArrow=classic;startFill=1;" parent="VW3lL3cYOoMvem1zIZGO-20" source="VW3lL3cYOoMvem1zIZGO-3" target="VW3lL3cYOoMvem1zIZGO-6" edge="1">
          <mxGeometry relative="1" as="geometry" />
        </mxCell>
        <mxCell id="VW3lL3cYOoMvem1zIZGO-3" value="User" style="sketch=0;pointerEvents=1;shadow=0;dashed=0;html=1;strokeColor=none;fillColor=#505050;labelPosition=center;verticalLabelPosition=bottom;verticalAlign=top;outlineConnect=0;align=center;shape=mxgraph.office.users.mobile_user;" parent="VW3lL3cYOoMvem1zIZGO-20" vertex="1">
          <mxGeometry width="59" height="56" as="geometry" />
        </mxCell>
        <mxCell id="VW3lL3cYOoMvem1zIZGO-4" value="SQLite" style="sketch=0;shadow=0;dashed=0;html=1;strokeColor=none;labelPosition=center;verticalLabelPosition=bottom;verticalAlign=top;outlineConnect=0;align=center;shape=mxgraph.office.databases.database;fillColor=#2072B8;" parent="VW3lL3cYOoMvem1zIZGO-20" vertex="1">
          <mxGeometry x="397" y="7" width="35" height="49" as="geometry" />
        </mxCell>
        <mxCell id="VW3lL3cYOoMvem1zIZGO-12" style="edgeStyle=none;shape=connector;rounded=0;orthogonalLoop=1;jettySize=auto;html=1;strokeColor=default;align=center;verticalAlign=middle;fontFamily=Helvetica;fontSize=11;fontColor=default;labelBackgroundColor=default;startArrow=classic;startFill=1;endArrow=classic;" parent="VW3lL3cYOoMvem1zIZGO-20" source="VW3lL3cYOoMvem1zIZGO-6" target="VW3lL3cYOoMvem1zIZGO-4" edge="1">
          <mxGeometry relative="1" as="geometry" />
        </mxCell>
        <mxCell id="VW3lL3cYOoMvem1zIZGO-6" value="Shop.ly" style="sketch=0;pointerEvents=1;shadow=0;dashed=0;html=1;strokeColor=none;fillColor=#505050;labelPosition=center;verticalLabelPosition=bottom;verticalAlign=top;outlineConnect=0;align=center;shape=mxgraph.office.concepts.application_android;" parent="VW3lL3cYOoMvem1zIZGO-20" vertex="1">
          <mxGeometry x="210" y="5" width="60" height="51" as="geometry" />
        </mxCell>
        <mxCell id="VW3lL3cYOoMvem1zIZGO-22" value="" style="group" parent="FJEk-ni-e8xOivcbfDF8-2" vertex="1" connectable="0">
          <mxGeometry x="345" y="440" width="400" height="50" as="geometry" />
        </mxCell>
        <mxCell id="VW3lL3cYOoMvem1zIZGO-16" value="&lt;font face=&quot;Verdana&quot;&gt;&lt;span style=&quot;font-size: 30px;&quot;&gt;&lt;b&gt;Monolithic Architecture&lt;/b&gt;&lt;/span&gt;&lt;/font&gt;" style="text;html=1;align=center;verticalAlign=middle;whiteSpace=wrap;rounded=0;fontFamily=Helvetica;fontSize=11;fontColor=default;labelBackgroundColor=none;" parent="VW3lL3cYOoMvem1zIZGO-22" vertex="1">
          <mxGeometry width="400" height="30" as="geometry" />
        </mxCell>
        <mxCell id="VW3lL3cYOoMvem1zIZGO-17" value="" style="endArrow=none;html=1;rounded=0;strokeColor=default;align=center;verticalAlign=middle;fontFamily=Helvetica;fontSize=11;fontColor=default;labelBackgroundColor=default;strokeWidth=2;" parent="VW3lL3cYOoMvem1zIZGO-22" edge="1">
          <mxGeometry width="50" height="50" relative="1" as="geometry">
            <mxPoint y="50" as="sourcePoint" />
            <mxPoint x="395" y="50" as="targetPoint" />
          </mxGeometry>
        </mxCell>
        <mxCell id="VW3lL3cYOoMvem1zIZGO-23" value="" style="group" parent="FJEk-ni-e8xOivcbfDF8-2" vertex="1" connectable="0">
          <mxGeometry x="275" width="540" height="50" as="geometry" />
        </mxCell>
        <mxCell id="VW3lL3cYOoMvem1zIZGO-24" value="&lt;strong data-end=&quot;86&quot; data-start=&quot;51&quot;&gt;&lt;font face=&quot;Verdana&quot; style=&quot;font-size: 30px;&quot;&gt;Static Site Deployment Pipeline&lt;/font&gt;&lt;/strong&gt;" style="text;html=1;align=center;verticalAlign=middle;whiteSpace=wrap;rounded=0;fontFamily=Helvetica;fontSize=11;fontColor=default;labelBackgroundColor=none;" parent="VW3lL3cYOoMvem1zIZGO-23" vertex="1">
          <mxGeometry width="540" height="30" as="geometry" />
        </mxCell>
        <mxCell id="VW3lL3cYOoMvem1zIZGO-25" value="" style="endArrow=none;html=1;rounded=0;strokeColor=default;align=center;verticalAlign=middle;fontFamily=Helvetica;fontSize=11;fontColor=default;labelBackgroundColor=default;strokeWidth=2;" parent="VW3lL3cYOoMvem1zIZGO-23" edge="1">
          <mxGeometry width="50" height="50" relative="1" as="geometry">
            <mxPoint y="50" as="sourcePoint" />
            <mxPoint x="535" y="50" as="targetPoint" />
          </mxGeometry>
        </mxCell>
      </root>
    </mxGraphModel>
  </diagram>
</mxfile>
